<?xml version="1.0" standalone="no"?>
<!DOCTYPE svg PUBLIC "-//W3C//DTD SVG 20010904//EN"
 "http://www.w3.org/TR/2001/REC-SVG-20010904/DTD/svg10.dtd">
<svg version="1.0" xmlns="http://www.w3.org/2000/svg"
 width="700.000000pt" height="700.000000pt" viewBox="0 0 700.000000 700.000000"
 preserveAspectRatio="xMidYMid meet">
<g transform="translate(0.000000,700.000000) scale(0.100000,-0.100000)"
fill="#000000" stroke="none">
<path d="M0 5600 c0 -1113 3 -1400 13 -1401 16 0 1323 0 1362 0 l30 1 0 702 0
701 351 0 351 0 0 699 0 698 -1054 0 -1053 0 0 -1400z"/>
<path d="M4799 6996 c-2 -2 -47 -6 -99 -10 -52 -3 -106 -8 -120 -10 -14 -3
-50 -7 -80 -10 -185 -21 -580 -121 -629 -160 -8 -6 -17 -11 -20 -10 -24 4
-209 -86 -326 -159 -361 -224 -625 -579 -714 -957 -16 -68 -18 -141 -17 -778
l1 -702 -45 -1 c-25 0 -184 -1 -355 -2 l-310 -2 0 -695 0 -695 349 -2 c220 0
351 -5 355 -11 8 -14 5 -754 -3 -817 -41 -290 -223 -497 -524 -595 -108 -35
-171 -40 -516 -40 l-341 0 0 378 0 377 -702 3 -703 2 0 -1050 0 -1050 1398 1
c1502 1 1492 1 1693 53 139 36 225 71 344 140 362 207 621 588 729 1068 l26
115 0 712 0 711 43 0 c23 1 180 1 350 1 227 1 307 4 308 12 0 7 1 320 2 697
l0 685 -324 2 c-178 1 -337 2 -352 3 l-28 0 4 413 c2 226 7 428 11 447 52 245
218 438 456 529 151 59 181 62 544 62 182 0 345 0 361 -1 l30 0 0 -377 0 -378
703 -1 702 0 0 1053 0 1054 -1099 -1 c-604 -1 -1100 -3 -1102 -4z"/>
<path d="M5607 2800 c-10 -4 -12 -159 -12 -702 0 -459 -3 -698 -10 -699 -5 -1
-158 -2 -340 -3 -181 -2 -335 -4 -341 -4 -8 -2 -11 -200 -10 -694 l1 -693
1053 -3 1052 -2 0 1400 0 1400 -47 0 c-455 4 -1337 4 -1346 0z"/>
</g>
</svg>
