<?xml version="1.0" encoding="UTF-8" standalone="no"?>
<svg
   xmlns:dc="http://purl.org/dc/elements/1.1/"
   xmlns:cc="http://creativecommons.org/ns#"
   xmlns:rdf="http://www.w3.org/1999/02/22-rdf-syntax-ns#"
   xmlns:svg="http://www.w3.org/2000/svg"
   xmlns="http://www.w3.org/2000/svg"
   id="svg31"
   version="1.1"
   viewBox="0 0 64 64">
  <metadata
     id="metadata37">
    <rdf:RDF>
      <cc:Work
         rdf:about="">
        <dc:format>image/svg+xml</dc:format>
        <dc:type
           rdf:resource="http://purl.org/dc/dcmitype/StillImage" />
        <dc:title></dc:title>
      </cc:Work>
    </rdf:RDF>
  </metadata>
  <defs
     id="defs35" />
  <desc
     id="desc4" />
  <g
     id="Outlines">
    <g
       id="g28">
      <circle
         id="circle6"
         r="1"
         cy="57"
         cx="33" />
      <circle
         id="circle8"
         r="1"
         cy="57"
         cx="37" />
      <circle
         id="circle10"
         r="1"
         cy="57"
         cx="41" />
      <path
         id="path12"
         d="M22,58h6a1,1,0,0,0,0-2H22a1,1,0,0,0,0,2Z" />
      <circle
         id="circle14"
         r="1"
         cy="49"
         cx="33" />
      <circle
         id="circle16"
         r="1"
         cy="49"
         cx="37" />
      <circle
         id="circle18"
         r="1"
         cy="49"
         cx="41" />
      <path
         id="path20"
         d="M22,48a1,1,0,0,0,0,2h6a1,1,0,0,0,0-2Z" />
      <path
         id="path22"
         d="M9,26H7a1,1,0,0,0,0,2H9a1,1,0,0,0,0-2Z" />
      <path
         id="path24"
         d="M9,30H7a1,1,0,0,0,0,2H9a1,1,0,0,0,0-2Z" />
      <path
         id="path26"
         d="M62,20a8,8,0,0,0-15.931-1H43a1,1,0,0,0-1,1V30.184A3,3,0,0,0,40.184,32h-4.21a4.954,4.954,0,0,0,.925-2H38a1,1,0,0,0,0-2H27a1,1,0,0,1,0-2H37a2.993,2.993,0,0,0,1-5.816V20A10,10,0,0,0,32,2a9.882,9.882,0,0,0-4.614,1.133,1,1,0,1,0,.925,1.773A7.908,7.908,0,0,1,32,4a8,8,0,0,1,4.443,14.651,1,1,0,0,0-.443.831V20H34.309l2.656-9.737a1,1,0,0,0-1.412-1.158L32,10.882,28.447,9.105a1,1,0,0,0-1.412,1.158L29.691,20H28v-.518a1,1,0,0,0-.444-.831A7.979,7.979,0,0,1,25.6,7.222a1,1,0,0,0-1.6-1.2A9.98,9.98,0,0,0,26,20v.185A2.972,2.972,0,0,0,24.78,25,2.987,2.987,0,0,0,27,30h.1a4.954,4.954,0,0,0,.925,2H21V29a1,1,0,0,0-1-1H14V23a1,1,0,0,0-1-1H3a1,1,0,0,0-1,1V35a1,1,0,0,0,1,1H7v3a1,1,0,0,0,1,1H25v1a1,1,0,0,0,1,1h3v2H18a1,1,0,0,0-1,1V61a1,1,0,0,0,1,1H46a1,1,0,0,0,1-1V45a1,1,0,0,0-1-1H43a1,1,0,0,0,0,2h2v6H19V46H39a1,1,0,0,0,0-2H35V42h3a1,1,0,0,0,1-1V40h6a1,1,0,0,0,0-2H39V37a1,1,0,0,0-1-1H26a1,1,0,0,0-1,1v1H9V36h4a1,1,0,0,0,1-1V30h5v3a1,1,0,0,0,1,1H40.184A2.993,2.993,0,1,0,44,30.184V21h2.069a8.009,8.009,0,0,0,6.945,6.933c0,.023-.014.043-.014.067v8.184A3,3,0,0,0,51.184,38H49a1,1,0,0,0,0,2h2.184A2.993,2.993,0,1,0,55,36.184V28c0-.024-.012-.044-.014-.067A8.008,8.008,0,0,0,62,20ZM29.553,11.9l2,1a1,1,0,0,0,.894,0l2-1L32.236,20h-.472ZM27,22H37a1,1,0,0,1,0,2H27a1,1,0,0,1,0-2ZM45,54v6H19V54ZM27,38H37v2H34a1,1,0,0,0-1,1v3H31V41a1,1,0,0,0-1-1H27ZM12,34H4V24h8Zm17.171-4h5.658a3,3,0,0,1-5.658,0ZM43,34a1,1,0,1,1,1-1A1,1,0,0,1,43,34ZM59.91,19H57.967a13.727,13.727,0,0,0-.825-4.1A6.005,6.005,0,0,1,59.91,19ZM54,26c-.639,0-1.751-1.882-1.957-5h3.914C55.751,24.118,54.639,26,54,26Zm-1.957-7c.206-3.118,1.318-5,1.957-5s1.751,1.882,1.957,5Zm-1.185-4.1a13.727,13.727,0,0,0-.825,4.1H48.09A6.005,6.005,0,0,1,50.858,14.9ZM48.09,21h1.943a13.727,13.727,0,0,0,.825,4.1A6.005,6.005,0,0,1,48.09,21ZM54,40a1,1,0,1,1,1-1A1,1,0,0,1,54,40Zm3.142-14.9a13.727,13.727,0,0,0,.825-4.1H59.91A6.005,6.005,0,0,1,57.142,25.1Z" />
    </g>
  </g>
</svg>
