<?xml version="1.0" encoding="UTF-8" standalone="no"?>
<svg
   xmlns:dc="http://purl.org/dc/elements/1.1/"
   xmlns:cc="http://creativecommons.org/ns#"
   xmlns:rdf="http://www.w3.org/1999/02/22-rdf-syntax-ns#"
   xmlns:svg="http://www.w3.org/2000/svg"
   xmlns="http://www.w3.org/2000/svg"
   id="svg85"
   version="1.1"
   viewBox="0 0 64 64">
  <metadata
     id="metadata91">
    <rdf:RDF>
      <cc:Work
         rdf:about="">
        <dc:format>image/svg+xml</dc:format>
        <dc:type
           rdf:resource="http://purl.org/dc/dcmitype/StillImage" />
        <dc:title></dc:title>
      </cc:Work>
    </rdf:RDF>
  </metadata>
  <defs
     id="defs89" />
  <desc
     id="desc4" />
  <g
     id="Outline">
    <g
       id="g82">
      <path
         id="path6"
         d="M16,22H12a1,1,0,0,1,0-2h4a1,1,0,0,1,0,2Z" />
      <path
         id="path8"
         d="M27,22H24a1,1,0,0,1,0-2h3a1,1,0,0,1,0,2Z" />
      <path
         id="path10"
         d="M20,27H12a1,1,0,0,1,0-2h8a1,1,0,0,1,0,2Z" />
      <path
         id="path12"
         d="M26,27H24a1,1,0,0,1,0-2h2a1,1,0,0,1,0,2Z" />
      <path
         id="path14"
         d="M15,33H12a1,1,0,0,1,0-2h3a1,1,0,0,1,0,2Z" />
      <path
         id="path16"
         d="M28,33H23a1,1,0,0,1,0-2h5a1,1,0,0,1,0,2Z" />
      <circle
         id="circle18"
         r="1"
         cy="32"
         cx="19" />
      <path
         id="path20"
         d="M22,38H16a1,1,0,0,1,0-2h6a1,1,0,0,1,0,2Z" />
      <path
         id="path22"
         d="M30,38H27a1,1,0,0,1,0-2h3a1,1,0,0,1,0,2Z" />
      <path
         id="path24"
         d="M17,43H12a1,1,0,0,1,0-2h5a1,1,0,0,1,0,2Z" />
      <path
         id="path26"
         d="M29,48H26a1,1,0,0,1,0-2h3a1,1,0,0,1,0,2Z" />
      <path
         id="path28"
         d="M31,43H29a1,1,0,0,1,0-2h2a1,1,0,0,1,0,2Z" />
      <path
         id="path30"
         d="M15,48H12a1,1,0,0,1,0-2h3a1,1,0,0,1,0,2Z" />
      <path
         id="path32"
         d="M22,48H19a1,1,0,0,1,0-2h3a1,1,0,0,1,0,2Z" />
      <path
         id="path34"
         d="M17,53H12a1,1,0,0,1,0-2h5a1,1,0,0,1,0,2Z" />
      <circle
         id="circle36"
         r="1"
         cy="52"
         cx="21" />
      <circle
         id="circle38"
         r="1"
         cy="42"
         cx="21" />
      <circle
         id="circle40"
         r="1"
         cy="42"
         cx="25" />
      <circle
         id="circle42"
         r="1"
         cy="37"
         cx="12" />
      <circle
         id="circle44"
         r="1"
         cy="21"
         cx="20" />
      <path
         id="path46"
         d="M38,30a1,1,0,0,1-.707-.293l-4-4a1,1,0,0,1,0-1.414l4-4a1,1,0,0,1,1.414,1.414L35.414,25l3.293,3.293A1,1,0,0,1,38,30Z" />
      <path
         id="path48"
         d="M42,30a1,1,0,0,1-.949-1.316l3-9a1,1,0,0,1,1.9.632l-3,9A1,1,0,0,1,42,30Z" />
      <path
         id="path50"
         d="M49,30a1,1,0,0,1-.707-1.707L51.586,25l-3.293-3.293a1,1,0,0,1,1.414-1.414l4,4a1,1,0,0,1,0,1.414l-4,4A1,1,0,0,1,49,30Z" />
      <path
         id="path52"
         d="M52,40a1,1,0,0,1-1-1V35a1,1,0,0,1,2,0v4A1,1,0,0,1,52,40Z" />
      <path
         id="path54"
         d="M47,40H45a2,2,0,0,1-2-2V36a2,2,0,0,1,2-2h2a2,2,0,0,1,2,2v2A2,2,0,0,1,47,40Zm-2-4v2h2V36Z" />
      <path
         id="path56"
         d="M36,40a1,1,0,0,1-1-1V35a1,1,0,0,1,2,0v4A1,1,0,0,1,36,40Z" />
      <path
         id="path58"
         d="M40,40a1,1,0,0,1-1-1V35a1,1,0,0,1,2,0v4A1,1,0,0,1,40,40Z" />
      <path
         id="path60"
         d="M43,48H41a2,2,0,0,1-2-2V44a2,2,0,0,1,2-2h2a2,2,0,0,1,2,2v2A2,2,0,0,1,43,48Zm-2-4v2h2V44Z" />
      <path
         id="path62"
         d="M51,48H49a2,2,0,0,1-2-2V44a2,2,0,0,1,2-2h2a2,2,0,0,1,2,2v2A2,2,0,0,1,51,48Zm-2-4v2h2V44Z" />
      <path
         id="path64"
         d="M36,48a1,1,0,0,1-1-1V43a1,1,0,0,1,2,0v4A1,1,0,0,1,36,48Z" />
      <g
         id="g80">
        <path
           id="path66"
           d="M9,12a3,3,0,1,1,3-3A3,3,0,0,1,9,12ZM9,8a1,1,0,1,0,1,1A1,1,0,0,0,9,8Z" />
        <path
           id="path68"
           d="M17,12a3,3,0,1,1,3-3A3,3,0,0,1,17,12Zm0-4a1,1,0,1,0,1,1A1,1,0,0,0,17,8Z" />
        <path
           id="path70"
           d="M25,12a3,3,0,1,1,3-3A3,3,0,0,1,25,12Zm0-4a1,1,0,1,0,1,1A1,1,0,0,0,25,8Z" />
        <path
           id="path72"
           d="M57,12H33a1,1,0,0,1-1-1V7a1,1,0,0,1,1-1H57a1,1,0,0,1,0,2H34v2H57a1,1,0,0,1,0,2Z" />
        <path
           id="path74"
           d="M57,58H7a1,1,0,0,1-1-1V15a1,1,0,0,1,1-1h8a1,1,0,0,1,0,2H8V56H56V16H19a1,1,0,0,1,0-2H57a1,1,0,0,1,1,1V57A1,1,0,0,1,57,58Z" />
        <path
           id="path76"
           d="M59,62H5a3,3,0,0,1-3-3V49a1,1,0,0,1,2,0V59a1,1,0,0,0,1,1H59a1,1,0,0,0,1-1V24a1,1,0,0,1,2,0V59A3,3,0,0,1,59,62Z" />
        <path
           id="path78"
           d="M3,46a1,1,0,0,1-1-1V5A3,3,0,0,1,5,2H59a3,3,0,0,1,3,3V20a1,1,0,0,1-2,0V5a1,1,0,0,0-1-1H5A1,1,0,0,0,4,5V45A1,1,0,0,1,3,46Z" />
      </g>
    </g>
  </g>
</svg>
