<?xml version="1.0" encoding="UTF-8" standalone="no"?>
<svg
   xmlns:dc="http://purl.org/dc/elements/1.1/"
   xmlns:cc="http://creativecommons.org/ns#"
   xmlns:rdf="http://www.w3.org/1999/02/22-rdf-syntax-ns#"
   xmlns:svg="http://www.w3.org/2000/svg"
   xmlns="http://www.w3.org/2000/svg"
   id="svg17"
   version="1.1"
   viewBox="0 0 64 64">
  <metadata
     id="metadata23">
    <rdf:RDF>
      <cc:Work
         rdf:about="">
        <dc:format>image/svg+xml</dc:format>
        <dc:type
           rdf:resource="http://purl.org/dc/dcmitype/StillImage" />
        <dc:title></dc:title>
      </cc:Work>
    </rdf:RDF>
  </metadata>
  <defs
     id="defs21" />
  <desc
     id="desc4" />
  <g
     id="Outline">
    <g
       id="g14">
      <path
         id="path6"
         d="m 11,40 h 11.382 l -2,4 H 17 a 3,3 0 0 0 -3,3 v 2 a 1,1 0 0 0 1,1 h 34 a 1,1 0 0 0 1,-1 v -2 a 3,3 0 0 0 -3,-3 h -3.382 l -2,-4 H 54 a 5.006,5.006 0 0 0 5,-5 v -5 a 1,1 0 0 0 -2,0 v 5 a 3,3 0 0 1 -3,3 H 53 V 25 a 1,1 0 0 0 -2,0 V 38 H 49 V 18 h 2 v 3 a 1,1 0 0 0 2,0 v -4 c 0,-0.013 -0.007,-0.024 -0.008,-0.038 a 0.983,0.983 0 0 0 -0.063,-0.333 l -0.008,-0.018 v 0 L 48.929,6.629 a 1,1 0 0 0 -1.858,0 l -3.992,9.981 v 0 l -0.008,0.018 a 0.983,0.983 0 0 0 -0.063,0.333 C 43.008,16.975 43,16.986 43,16.999 V 35 a 1,1 0 0 0 2,0 V 18 h 2 v 20 h -9 v -4.184 a 2.978,2.978 0 0 0 0.429,-5.437 L 39.9,25.447 a 1,1 0 0 0 0.034,-0.818 l -4,-10 A 1,1 0 0 0 35,14 h -3 a 1,1 0 0 0 -1,1 v 6.184 a 3,3 0 1 0 2,0 V 16 h 1.323 L 37.905,24.954 36.382,28 H 27.618 L 26.1,24.954 29.934,15.371 a 1.0003409,1.0003409 0 1 0 -1.858,-0.742 l -4,10 a 1,1 0 0 0 0.034,0.818 l 1.466,2.932 A 2.978,2.978 0 0 0 26,33.816 V 38 H 20.087 L 21,27.083 c 0,-0.015 -0.006,-0.027 0,-0.042 0.006,-0.015 0,-0.026 0,-0.041 V 23 A 0.977,0.977 0 0 0 20.849,22.5 5.9,5.9 0 0 0 22,19 c 0,-1.515 -0.863,-2.438 -1.776,-3.417 A 10.834,10.834 0 0 1 16.99,8.858 1.339,1.339 0 0 0 15.61,7.533 C 13.381,7.692 10,16.983 10,19 A 5.9,5.9 0 0 0 11.151,22.5 0.977,0.977 0 0 0 11,23 v 4 a 1,1 0 0 0 1,1 h 6.913 L 18.08,38 h -4.16 l -0.59,-7.083 a 1,1 0 0 0 -1.993,0.166 L 11.913,38 H 11 A 4,4 0 0 1 7,34 V 24 a 1,1 0 0 0 -2,0 v 10 a 6.006,6.006 0 0 0 6,6 z M 48.923,12 H 47.077 L 48,9.692 Z m -2.646,2 h 3.446 l 0.8,2 H 45.477 Z M 32,25 a 1,1 0 1 1 1,-1 1,1 0 0 1 -1,1 z M 15.251,10.485 a 12.405,12.405 0 0 0 3.511,6.462 C 19.6,17.844 20,18.305 20,19 a 3.951,3.951 0 0 1 -1.378,3 H 13.378 A 3.951,3.951 0 0 1 12,19 c 0,-1.745 1.985,-6.39 3.251,-8.515 z M 13,24 h 6 v 2 h -6 z m 35,23 v 1 H 16 v -1 a 1,1 0 0 1 1,-1 h 30 a 1,1 0 0 1 1,1 z M 37,30 a 1,1 0 0 1 0,2 H 27 a 1,1 0 0 1 0,-2 z m -9,4 h 8 v 4 h -8 z m 11.382,6 2,4 H 22.618 l 2,-4 z" />
      <path
         style="display:inline"
         id="path8"
         d="M 6,21 A 1,1 0 0 0 7,20 V 7 a 3,3 0 0 1 3,-3 h 44 a 3,3 0 0 1 3,3 v 19 a 1,1 0 0 0 2,0 V 7 A 5.006,5.006 0 0 0 54,2 H 10 A 5.006,5.006 0 0 0 5,7 v 13 a 1,1 0 0 0 1,1 z" />
      <path
         style="display:inline"
         id="path10"
         d="M 49.8,54 50,57.064 A 1,1 0 0 0 51,58 0.983,0.983 0 0 0 51.442,57.9 l 3.233,-1.6 a 1.006,1.006 0 0 0 0.423,-0.4 l 6.5,-11.258 a 3.0016662,3.0016662 0 1 0 -5.2,-3 L 50.422,52 H 41 a 1,1 0 0 0 -1,1 v 8 a 1,1 0 0 0 1,1 h 19 a 1,1 0 0 0 1,-1 v -8 a 1,1 0 0 0 -2,0 v 7 H 47 v -6 z m 8.33,-11.356 a 1,1 0 1 1 1.732,1 l -6.349,11 -1.616,0.8 -0.116,-1.8 z M 45,60 h -3 v -6 h 3 z" />
      <path
         style="display:inline"
         id="path12"
         d="M 34,52 H 6 a 1,1 0 0 0 -1,1 v 8 a 1,1 0 0 0 1,1 h 28 a 1,1 0 0 0 1,-1 v -8 a 1,1 0 0 0 -1,-1 z m -1,4 h -2 v -2 h 2 z m -4,0 h -2 v -2 h 2 z m -4,0 h -2 v -2 h 2 z m -4,0 h -2 v -2 h 2 z m -4,0 h -2 v -2 h 2 z m -4,0 h -2 v -2 h 2 z M 7,54 h 2 v 2 H 7 Z m 0,4 h 2 v 2 H 7 Z m 4,0 h 2 v 2 h -2 z m 4,0 h 10 v 2 H 15 Z m 12,0 h 2 v 2 h -2 z m 6,2 h -2 v -2 h 2 z" />
    </g>
  </g>
</svg>
